<svg id="Layer_1_1_" enable-background="new 0 0 64 64" height="512" viewBox="0 0 64 64" width="512" xmlns="http://www.w3.org/2000/svg"><path d="m30 40h-10s-16 3.686-16 7l1 14h40l1-14c0-3.314-16-7-16-7z" fill="#a31900"/><path d="m41.817 43.699c.108.357.183.724.183 1.104l-1 4.197-3 12h7l1-14c0-1.109-1.797-2.26-4.183-3.301z" fill="#821400"/><path d="m12.5 21c-1.381 0-2.5 1.119-2.5 2.5s1.119 2.5 2.5 2.5h1.5v-5z" fill="#fce0b9"/><path d="m30 42v-2-4.096l-.862.472c-.747.41-1.584.624-2.436.624h-3.405c-.851 0-1.689-.214-2.436-.624l-.861-.472v4.096 2c2.761 2.761 7.239 2.761 10 0z" fill="#fce0b9"/><circle cx="51" cy="11.889" fill="#eaca65" r="2"/><path d="m37.5 26c1.381 0 2.5-1.119 2.5-2.5s-1.119-2.5-2.5-2.5h-1.5v5z" fill="#fce0b9"/><path d="m23.298 37h3.405c.851 0 1.689-.214 2.436-.624l.861-.472 3.841-2.105c1.368-1.14 2.159-2.829 2.159-4.609v-3.19-5-4.459c-.947.297-1.955.459-3 .459h-4c-2.162 0-4.158-.693-5.793-1.859l-9.207 5.859v5 3.19c0 1.781.791 3.469 2.159 4.609l3.841 2.105.862.472c.747.41 1.584.624 2.436.624zm4.702-7c0 1.657-1.343 3-3 3s-3-1.343-3-3z" fill="#fce0b9"/><path d="m25 33c1.657 0 3-1.343 3-3h-6c0 1.657 1.343 3 3 3z" fill="#e18080"/><path d="m40 4c-1.063 0-3.64.555-5.353 1.389-2.378-1.406-7.376-2.389-10.647-2.389-4.418 0-8 1.791-8 4-2.761 0-5 2.239-5 5s.239 9 3 9l9.207-5.859c1.635 1.166 3.631 1.859 5.793 1.859h4c1.045 0 2.053-.162 3-.459 4.057-1.274 7-5.063 7-9.541 0-1.657-1.343-3-3-3z" fill="#4d2817"/><path d="m54.686 24.347c-.914-3.756-4.7-6.061-8.456-5.147s-6.061 4.7-5.147 8.456c.477 1.959 1.738 3.517 3.365 4.436 1.493.843 3.294 1.148 5.091.711s3.256-1.536 4.195-2.97c1.024-1.564 1.429-3.527.952-5.486z" fill="#808080"/><circle cx="59" cy="19" fill="#eaca65" r="2"/><path d="m16 9c0-2.209 3.582-4 8-4 3.271 0 8.269.983 10.647 2.389 1.713-.834 4.29-1.389 5.353-1.389 1.413 0 2.591.981 2.908 2.297.056-.425.092-.857.092-1.297 0-1.657-1.343-3-3-3-1.063 0-3.64.555-5.353 1.389-2.378-1.406-7.376-2.389-10.647-2.389-4.418 0-8 1.791-8 4-2.761 0-5 2.239-5 5 0 .47.008 1.045.033 1.669.174-2.604 2.319-4.669 4.967-4.669z" fill="#66351e"/><path d="m33 17h-4c-2.162 0-4.158-.693-5.793-1.859l-9.207 5.859v2l9.207-5.859c1.635 1.166 3.631 1.859 5.793 1.859h4c1.045 0 2.053-.162 3-.459v-2c-.947.297-1.955.459-3 .459z" fill="#f5cba1"/><path d="m27.76 43.507c.814-.345 1.577-.844 2.24-1.507v-2-4.096l-.862.472c-.747.41-1.584.624-2.436.624h-3.405c-.851 0-1.689-.214-2.436-.624l-.861-.472v2.429z" fill="#f5cba1"/><path d="m46.928 39c-.608 0-1.204-.165-1.725-.478l-3.194-1.917c-.593-.356-1.353-.262-1.842.227-.627.627-.58 1.657.101 2.225l3.346 2.789c.879.731 1.386 1.815 1.386 2.957l-1 4.197-3 12h7l6-19z" fill="#fce0b9"/><path d="m55.758 44.873-1.333-9.907-.691-5.133c-.939 1.434-2.398 2.533-4.195 2.97s-3.598.131-5.091-.711l5.721 15.995 5.831-1.418z" fill="#606060"/><path d="m54.874 35h-.748c-1.726 0-3.126 1.4-3.126 3.126v3.748c0 1.726 1.4 3.126 3.126 3.126h.748c1.726 0 3.126-1.4 3.126-3.126v-3.748c0-1.726-1.4-3.126-3.126-3.126z" fill="#fce0b9"/><path d="m54.686 24.347c-.914-3.756-4.7-6.061-8.456-5.147-1.85.45-3.346 1.599-4.28 3.096.703-.5 1.508-.882 2.397-1.098 3.756-.914 7.542 1.391 8.456 5.147.466 1.914.086 3.829-.886 5.374.724-.513 1.339-1.155 1.817-1.886 1.024-1.564 1.429-3.527.952-5.486z" fill="#9e9e9e"/><path d="m20 25.75c-.965 0-1.75-.785-1.75-1.75s.785-1.75 1.75-1.75 1.75.785 1.75 1.75-.785 1.75-1.75 1.75zm0-2c-.138 0-.25.112-.25.25 0 .275.5.275.5 0 0-.138-.112-.25-.25-.25z"/><path d="m30 25.75c-.965 0-1.75-.785-1.75-1.75s.785-1.75 1.75-1.75 1.75.785 1.75 1.75-.785 1.75-1.75 1.75zm0-2c-.138 0-.25.112-.25.25 0 .275.5.275.5 0 0-.138-.112-.25-.25-.25z"/><path d="m25 33.75c-2.068 0-3.75-1.683-3.75-3.75 0-.414.336-.75.75-.75h6c.414 0 .75.336.75.75 0 2.067-1.682 3.75-3.75 3.75zm-2.122-3c.31.873 1.144 1.5 2.122 1.5s1.812-.627 2.122-1.5z"/><path d="m55.31 34.044-.537-3.991c1.018-1.731 1.396-3.842.885-5.942-1.043-4.286-5.382-6.926-9.665-5.882-2.338.569-4.18 2.122-5.208 4.108-.481-1.357-1.765-2.337-3.285-2.337h-.5v-2.764c4.091-1.605 7-5.583 7-10.236 0-2.206-1.794-4-4-4-1.177 0-3.57.53-5.31 1.271-2.752-1.41-7.566-2.271-10.69-2.271-4.55 0-8.107 1.69-8.855 4.061-2.905.416-5.145 2.92-5.145 5.939 0 3.842.454 6.579 1.349 8.21-1.363.479-2.349 1.766-2.349 3.29 0 1.93 1.57 3.5 3.5 3.5h.5v2.189c0 2.084.918 4.044 2.519 5.378.049.041.103.077.16.108l3.321 1.821v2.712c-5.373 1.281-16 4.265-15.998 7.864l1 14c.038.523.474.928.998.928h43.667c.469 0 .875-.325.976-.783l2.813-12.657.642-.156 2.982 3.518c.617.729.895 1.688.762 2.634s-.665 1.791-1.459 2.321c-1.492.994-2.383 2.658-2.383 4.451v.672h2v-.672c0-1.122.558-2.164 1.492-2.787 1.269-.847 2.118-2.197 2.331-3.707s-.231-3.042-1.217-4.205l-2.334-2.753.966-.235c.497-.121.823-.598.755-1.105l-.143-1.061c1.274-.703 2.15-2.045 2.15-3.601v-3.748c0-2.126-1.622-3.86-3.69-4.082zm-1.184 11.956h.393l-3.711.902-4.687-13.104c.574.131 1.164.205 1.765.205.624 0 1.257-.074 1.89-.228 1.242-.302 2.34-.888 3.256-1.662l.265 1.97c-1.879.385-3.297 2.051-3.297 4.043v3.748c0 2.275 1.851 4.126 4.126 4.126zm-10.452-15.737c.474.048.953.081 1.438.081 1.221 0 2.471-.151 3.718-.455 1.754-.427 3.353-1.144 4.763-2.067-.618 1.925-2.186 3.498-4.29 4.01-2.091.509-4.196-.158-5.629-1.569zm2.792-10.091c.475-.115.95-.171 1.418-.171 2.703 0 5.164 1.843 5.83 4.582.045.187.08.374.107.561-1.462 1.295-3.372 2.292-5.464 2.801s-4.246.5-6.14.022c-.062-.178-.117-.36-.163-.547-.781-3.215 1.198-6.466 4.412-7.248zm-6.355 7.721c.511 2.101 1.816 3.803 3.516 4.873l1.66 4.641-2.764-1.658c-.989-.594-2.248-.438-3.063.377-.497.497-.764 1.185-.732 1.887.032.703.36 1.363.9 1.813l3.346 2.789c.182.152.335.328.472.515-3.271-1.559-9.06-3.092-12.447-3.917v-2.717l3.322-1.82c.057-.031.11-.067.16-.108 1.601-1.335 2.519-3.295 2.519-5.379v-2.189h.5c.927 0 1.766-.369 2.393-.959.002.612.068 1.232.218 1.852zm-19.111 9.65c.728.297 1.51.457 2.298.457h3.404c.788 0 1.57-.16 2.298-.457v4.025c-1.107.973-2.513 1.504-4 1.504s-2.893-.531-4-1.504zm16.5-15.543c.827 0 1.5.673 1.5 1.5s-.673 1.5-1.5 1.5h-.5v-3zm-21.5-14c.552 0 1-.447 1-1 0-1.416 2.994-3 7-3 2.996 0 7.896.924 10.139 2.249.289.172.644.186.947.039 1.589-.774 4.01-1.288 4.914-1.288 1.103 0 2 .897 2 2 0 4.963-4.038 9-9 9h-4c-1.875 0-3.677-.579-5.212-1.674-.332-.234-.773-.248-1.118-.029l-8.895 5.661c-.916-.348-1.775-2.848-1.775-7.958 0-2.206 1.794-4 4-4zm-3.5 17c-.827 0-1.5-.673-1.5-1.5s.673-1.5 1.5-1.5h.5v3zm2.5 4.189v-7.64l8.194-5.215c1.747 1.092 3.74 1.666 5.806 1.666h4c.684 0 1.35-.071 2-.191v11.381c0 1.458-.628 2.83-1.728 3.781l-4.614 2.528c-.598.328-1.275.501-1.956.501h-3.404c-.681 0-1.357-.173-1.956-.501l-4.614-2.528c-1.1-.951-1.728-2.324-1.728-3.782zm-10 17.811c0-1.249 6.529-3.895 14-5.732v.732c0 .266.105.52.293.707 1.524 1.524 3.551 2.364 5.707 2.364s4.183-.84 5.707-2.364c.188-.187.293-.441.293-.707v-.727c5.529 1.376 11.414 3.232 12.788 4.273l-3.571 14.454h-2.217v-7h-2v7h-22v-7h-2v7h-6.069zm42.864 13h-5.583l2.692-10.769 1-4.197c.018-.075.027-.153.027-.231 0-1.443-.636-2.802-1.745-3.726l-3.346-2.789c-.15-.124-.178-.283-.182-.367-.004-.083.01-.244.148-.382.166-.164.421-.195.62-.076l3.195 1.917c.463.277.973.458 1.501.549l3.038 8.495c.145.405.527.663.941.663.041 0 .082-.01.124-.015zm9.136-18.126c0 1.172-.954 2.126-2.126 2.126h-.748c-1.172 0-2.126-.954-2.126-2.126v-3.748c0-1.172.954-2.126 2.126-2.126h.748c1.172 0 2.126.954 2.126 2.126z"/><path d="m54 11.889v-7.199l3.217-.714-.434-1.953-4 .889c-.457.102-.783.508-.783.977v5.184c-.314-.112-.648-.184-1-.184-1.654 0-3 1.346-3 3s1.346 3 3 3 3-1.346 3-3zm-4 0c0-.552.449-1 1-1s1 .448 1 1-.449 1-1 1-1-.449-1-1z"/><path d="m60 16.184c-.314-.112-.648-.184-1-.184-1.654 0-3 1.346-3 3s1.346 3 3 3 3-1.346 3-3v-8h-2zm-1 3.816c-.551 0-1-.448-1-1s.449-1 1-1 1 .448 1 1-.449 1-1 1z"/></svg>