<svg id="Capa_1" enable-background="new 0 0 512 512" height="512" viewBox="0 0 512 512" width="512" xmlns="http://www.w3.org/2000/svg" xmlns:xlink="http://www.w3.org/1999/xlink"><linearGradient id="SVGID_1_" gradientUnits="userSpaceOnUse" x1="256" x2="256" y1="512" y2="0"><stop offset="0" stop-color="#a93aff"/><stop offset="1" stop-color="#ff81ff"/></linearGradient><g><g><path d="m256 0c-140.61 0-256 115.39-256 256s115.39 256 256 256 256-115.39 256-256-115.39-256-256-256zm0 482c-124.072 0-226-101.928-226-226s101.928-226 226-226 226 101.928 226 226-101.928 226-226 226zm-58.315-87.807c-17.842-7.559-33.896-18.384-47.695-32.183s-24.624-29.854-32.183-47.695c-3.223-7.646-12.1-11.206-19.658-7.969-7.632 3.223-11.191 12.026-7.969 19.658 9.067 21.416 22.046 40.664 38.599 57.217s35.801 29.531 57.217 38.599c7.62 3.224 16.435-.33 19.658-7.969 3.222-7.631-.338-16.435-7.969-19.658zm224.135-208.198c-9.067-21.416-22.046-40.664-38.599-57.217s-35.801-29.531-57.217-38.599c-7.588-3.208-16.436.308-19.658 7.969-3.223 7.632.337 16.436 7.969 19.658 17.842 7.559 33.896 18.384 47.695 32.183s24.624 29.854 32.183 47.695c3.231 7.657 12.058 11.184 19.658 7.969 7.632-3.222 11.192-12.026 7.969-19.658zm-165.82-34.995c-57.891 0-105 47.109-105 105s47.109 105 105 105 105-47.109 105-105-47.109-105-105-105zm0 180c-41.353 0-75-33.647-75-75s33.647-75 75-75 75 33.647 75 75-33.647 75-75 75zm0-120c-24.814 0-45 20.186-45 45s20.186 45 45 45 45-20.186 45-45-20.186-45-45-45zm0 60c-8.276 0-15-6.724-15-15s6.724-15 15-15 15 6.724 15 15-6.724 15-15 15z" fill="url(#SVGID_1_)"/></g></g></svg>