<svg id="Capa_1" enable-background="new 0 0 512 512" height="512" viewBox="0 0 512 512" width="512" xmlns="http://www.w3.org/2000/svg" xmlns:xlink="http://www.w3.org/1999/xlink"><linearGradient id="SVGID_1_" gradientUnits="userSpaceOnUse" x1="256" x2="256" y1="512" y2="0"><stop offset="0" stop-color="#ffbef9"/><stop offset="1" stop-color="#fff1ff"/></linearGradient><linearGradient id="SVGID_2_" gradientUnits="userSpaceOnUse" x1="256" x2="256" y1="407" y2="105"><stop offset="0" stop-color="#ff81ff"/><stop offset="1" stop-color="#a93aff"/></linearGradient><g><circle cx="256" cy="256" fill="url(#SVGID_1_)" r="256"/></g><g><g><path d="m256 211.588c-24.496 0-44.412 19.925-44.412 44.412s19.916 44.412 44.412 44.412 44.412-19.924 44.412-44.412-19.916-44.412-44.412-44.412zm0 71.059c-14.694 0-26.647-11.953-26.647-26.647s11.953-26.647 26.647-26.647 26.647 11.953 26.647 26.647-11.953 26.647-26.647 26.647zm0-35.529c-4.892 0-8.882 3.981-8.882 8.882s3.99 8.882 8.882 8.882 8.882-3.981 8.882-8.882-3.99-8.882-8.882-8.882zm0-142.118c-83.255 0-151 67.737-151 151s67.745 151 151 151 151-67.737 151-151-67.745-151-151-151zm-29.804 244.473c-1.912 4.504-7.119 6.632-11.641 4.719-12.699-5.361-24.097-13.055-33.898-22.856-9.785-9.802-17.47-21.191-22.848-33.873-1.926-4.51.191-9.724 4.701-11.649 4.476-1.899 9.715.191 11.641 4.71 4.493 10.574 10.912 20.081 19.066 28.26 8.171 8.162 17.678 14.581 28.243 19.048 4.527 1.908 6.644 7.122 4.736 11.641zm29.804-31.296c-34.28 0-62.177-27.896-62.177-62.177s27.897-62.177 62.177-62.177 62.177 27.897 62.177 62.177-27.897 62.177-62.177 62.177zm93.49-91.99c-4.473 1.892-9.702-.155-11.641-4.71-4.493-10.574-10.912-20.081-19.066-28.26-8.171-8.162-17.678-14.581-28.243-19.048-4.528-1.908-6.645-7.122-4.736-11.641 1.926-4.528 7.165-6.618 11.641-4.719 12.699 5.361 24.097 13.055 33.898 22.856 9.785 9.802 17.47 21.191 22.848 33.873 1.926 4.51-.19 9.723-4.701 11.649z" fill="url(#SVGID_2_)"/></g></g></svg>