<svg id="Capa_1" enable-background="new 0 0 512 512" height="512" viewBox="0 0 512 512" width="512" xmlns="http://www.w3.org/2000/svg" xmlns:xlink="http://www.w3.org/1999/xlink"><linearGradient id="SVGID_1_" gradientUnits="userSpaceOnUse" x1="256" x2="256" y1="481" y2="31"><stop offset="0" stop-color="#a93aff"/><stop offset="1" stop-color="#ff81ff"/></linearGradient><g><g><path d="m497 31h-482c-8.291 0-15 6.709-15 15v420c0 8.291 6.709 15 15 15h482c8.291 0 15-6.709 15-15v-420c0-8.291-6.709-15-15-15zm-437 420h-30v-390h30zm422 0h-392v-390h392zm-196-150c24.814 0 45-20.186 45-45s-20.186-45-45-45-45 20.186-45 45 20.186 45 45 45zm0-60c8.276 0 15 6.724 15 15s-6.724 15-15 15-15-6.724-15-15 6.724-15 15-15zm0 180c90.981 0 165-74.019 165-165s-74.019-165-165-165-165 74.019-165 165 74.019 165 165 165zm0-300c74.443 0 135 60.557 135 135s-60.557 135-135 135-135-60.557-135-135 60.557-135 135-135z" fill="url(#SVGID_1_)"/></g></g></svg>