<?xml version="1.0" encoding="iso-8859-1"?>
<!-- Generator: Adobe Illustrator 19.0.0, SVG Export Plug-In . SVG Version: 6.00 Build 0)  -->
<svg version="1.1" id="Capa_1" xmlns="http://www.w3.org/2000/svg" xmlns:xlink="http://www.w3.org/1999/xlink" x="0px" y="0px"
	 viewBox="0 0 487.302 487.302" style="enable-background:new 0 0 487.302 487.302;" xml:space="preserve">
<linearGradient id="SVGID_1_" gradientUnits="userSpaceOnUse" x1="243.6511" y1="495.0269" x2="243.6511" y2="21.0849" gradientTransform="matrix(1 0 0 -1 0 488.9897)">
	<stop  offset="0" style="stop-color:#00EFD1"/>
	<stop  offset="1" style="stop-color:#00ACEA"/>
</linearGradient>
<path style="fill:url(#SVGID_1_);" d="M243.494,0.001C109.02-0.003,0.004,109.007,0.001,243.481
	c-0.002,64.582,25.654,126.52,71.322,172.184c94.91,95.264,249.078,95.551,344.342,0.641s95.551-249.078,0.641-344.342
	c-0.213-0.214-0.427-0.428-0.641-0.641C370.104,25.509,308.107-0.174,243.494,0.001L243.494,0.001z M243.494,466.989
	C120.259,466.989,20,366.73,20,243.495S120.259,20.001,243.494,20.001S466.988,120.26,466.988,243.495
	S366.729,466.989,243.494,466.989z"/>
<g>
	
		<linearGradient id="SVGID_2_" gradientUnits="userSpaceOnUse" x1="144.9846" y1="495.0269" x2="144.9846" y2="21.0849" gradientTransform="matrix(1 0 0 -1 0 488.9897)">
		<stop  offset="0" style="stop-color:#00EFD1"/>
		<stop  offset="1" style="stop-color:#00ACEA"/>
	</linearGradient>
	<path style="fill:url(#SVGID_2_);" d="M144.544,221.509c-8.412,0.023-16.59-2.763-23.239-7.916
		c-6.511-5.042-11.228-12.044-13.456-19.972l-19.281,5.312c3.386,12.097,10.573,22.784,20.5,30.482
		c10.146,7.871,22.631,12.128,35.472,12.094c27.546-0.062,51.276-19.426,56.861-46.4l-19.6-3.994
		C178.138,208.785,162.59,221.469,144.544,221.509L144.544,221.509z"/>
	
		<linearGradient id="SVGID_3_" gradientUnits="userSpaceOnUse" x1="342.1587" y1="495.0269" x2="342.1587" y2="21.0849" gradientTransform="matrix(1 0 0 -1 0 488.9897)">
		<stop  offset="0" style="stop-color:#00EFD1"/>
		<stop  offset="1" style="stop-color:#00ACEA"/>
	</linearGradient>
	<path style="fill:url(#SVGID_3_);" d="M398.578,195.109l-19.6-3.994c-4.245,20.59-24.378,33.841-44.968,29.596
		c-13.977-2.882-25.169-13.339-28.99-27.09l-19.281,5.312c3.386,12.097,10.573,22.784,20.5,30.482
		c25.38,19.587,61.834,14.891,81.421-10.489c5.405-7.004,9.138-15.15,10.913-23.817L398.578,195.109z"/>
	
		<linearGradient id="SVGID_4_" gradientUnits="userSpaceOnUse" x1="115.9762" y1="495.0269" x2="115.9762" y2="21.0849" gradientTransform="matrix(1 0 0 -1 0 488.9897)">
		<stop  offset="0" style="stop-color:#00EFD1"/>
		<stop  offset="1" style="stop-color:#00ACEA"/>
	</linearGradient>
	<path style="fill:url(#SVGID_4_);" d="M147.15,120.27l6.826-18.8c-30.77-11.114-64.737,4.726-76,35.442l18.787,6.859
		C104.23,123.406,126.749,112.903,147.15,120.27z"/>
	
		<linearGradient id="SVGID_5_" gradientUnits="userSpaceOnUse" x1="370.9521" y1="495.0269" x2="370.9521" y2="21.0849" gradientTransform="matrix(1 0 0 -1 0 488.9897)">
		<stop  offset="0" style="stop-color:#00EFD1"/>
		<stop  offset="1" style="stop-color:#00ACEA"/>
	</linearGradient>
	<path style="fill:url(#SVGID_5_);" d="M332.766,101.815l7.006,18.733c20.338-7.564,42.967,2.716,50.65,23.009l18.716-7.052
		C397.555,105.905,363.432,90.405,332.766,101.815z"/>
	
		<linearGradient id="SVGID_6_" gradientUnits="userSpaceOnUse" x1="385.7186" y1="495.0269" x2="385.7186" y2="21.0849" gradientTransform="matrix(1 0 0 -1 0 488.9897)">
		<stop  offset="0" style="stop-color:#00EFD1"/>
		<stop  offset="1" style="stop-color:#00ACEA"/>
	</linearGradient>
	<path style="fill:url(#SVGID_6_);" d="M389.904,260.2c-3.791,1.522-6.311,5.155-6.41,9.239v59.4
		c-3.348-1.32-6.919-1.98-10.518-1.945c-16.986-0.131-30.862,13.532-30.993,30.517s13.532,30.862,30.517,30.993
		s30.862-13.532,30.993-30.517c0.001-0.08,0.001-0.159,0.001-0.239v-64.067l11.7,11.467l14.261-14.142l-28.6-28.538
		C397.972,259.51,393.658,258.656,389.904,260.2L389.904,260.2z M373.213,368.4c-5.94,0-10.755-4.815-10.755-10.755
		s4.815-10.755,10.755-10.755s10.755,4.815,10.755,10.755c-0.006,5.938-4.817,10.751-10.755,10.758V368.4z"/>
	
		<linearGradient id="SVGID_7_" gradientUnits="userSpaceOnUse" x1="295.3811" y1="495.0269" x2="295.3811" y2="21.0849" gradientTransform="matrix(1 0 0 -1 0 488.9897)">
		<stop  offset="0" style="stop-color:#00EFD1"/>
		<stop  offset="1" style="stop-color:#00ACEA"/>
	</linearGradient>
	<path style="fill:url(#SVGID_7_);" d="M295.382,316.515c-22.717-0.001-41.133,18.415-41.134,41.132
		c-0.001,22.717,18.415,41.133,41.132,41.134c22.717,0.001,41.133-18.415,41.134-41.132c0,0,0-0.001,0-0.001
		C336.489,334.942,318.088,316.541,295.382,316.515z M295.382,378.78c-11.671,0.001-21.133-9.461-21.134-21.132
		c-0.001-11.671,9.461-21.133,21.132-21.134c11.671-0.001,21.133,9.461,21.134,21.132c0,0.001,0,0.001,0,0.002
		C316.501,369.313,307.048,378.767,295.382,378.78z"/>
</g>
<g>
</g>
<g>
</g>
<g>
</g>
<g>
</g>
<g>
</g>
<g>
</g>
<g>
</g>
<g>
</g>
<g>
</g>
<g>
</g>
<g>
</g>
<g>
</g>
<g>
</g>
<g>
</g>
<g>
</g>
</svg>
